<?xml version="1.0" encoding="utf-8"?>
<svg viewBox="-127 240.9 67.4 77.9" width="67.4" height="77.9" xmlns="http://www.w3.org/2000/svg">
  <defs>
    <style type="text/css">
	.st0{fill:#F0B90B;}
</style>
  </defs>
  <path class="st0" d="M -93.3 240.9 L -114 252.8 L -106.4 257.2 L -93.3 249.7 L -80.2 257.2 L -72.6 252.8 L -93.3 240.9 Z M -80.2 263.5 L -72.6 267.9 L -72.6 276.7 L -85.7 284.2 L -85.7 299.2 L -93.3 303.6 L -100.9 299.2 L -100.9 284.2 L -114 276.7 L -114 267.9 L -106.4 263.5 L -93.3 271 L -80.2 263.5 Z M -72.6 283 L -72.6 291.8 L -80.2 296.2 L -80.2 287.4 L -72.6 283 Z M -80.3 302.4 L -67.2 294.9 L -67.2 279.9 L -59.6 275.5 L -59.6 299.4 L -80.3 311.3 L -80.3 302.4 Z M -67.2 264.8 L -74.8 260.4 L -67.2 256 L -59.6 260.4 L -59.6 269.2 L -67.2 273.6 L -67.2 264.8 Z M -100.9 314.4 L -100.9 305.6 L -93.3 310 L -85.7 305.6 L -85.7 314.4 L -93.3 318.8 L -100.9 314.4 Z M -106.4 296.2 L -114 291.8 L -114 283 L -106.4 287.4 L -106.4 296.2 Z M -93.3 264.8 L -100.9 260.4 L -93.3 256 L -85.7 260.4 L -93.3 264.8 Z M -111.8 260.4 L -119.4 264.8 L -119.4 273.6 L -127 269.2 L -127 260.4 L -119.4 256 C -119.4 256 -111.8 260.4 -111.8 260.4 Z M -127 275.4 L -119.4 279.8 L -119.4 294.8 L -106.3 302.3 L -106.3 311.1 L -127 299.2 L -127 275.4 Z"/>
</svg>